# xmcd CD database file
#
# Track frame offsets:
#	183
#	20908
#	41440
#	65148
#	87278
#	106853
#	134978
#	164033
#	184878
#	208553
#
# Disc length: 3283 seconds
#
# Revision: 5
# Processed by: cddbd v1.5.2PL0 Copyright (c) Steve Scherf et al.
# Submitted via: CDex 2.23
#
DISCID=990cd10a
DTITLE=Forbidden - Point of no return - The best of
DYEAR=1992
DGENRE=Thrash Metal
TTITLE0=Chalice of blood
TTITLE1=Out of body (Out of mind)
TTITLE2=Feel no pain
TTITLE3=Step by step
TTITLE4=Off the edge
TTITLE5=One foot in hell
TTITLE6=Through eyes of glass
TTITLE7=Tossed away
TTITLE8=March into fire
TTITLE9=Victim of changes
EXTD=YEAR: 1992
EXTT0=
EXTT1=
EXTT2=
EXTT3=
EXTT4=
EXTT5=
EXTT6=
EXTT7=
EXTT8=
EXTT9=
PLAYORDER=
